<?xml version="1.0" encoding="UTF-8"?>
<svg id="Livello_1" data-name="Livello 1" xmlns="http://www.w3.org/2000/svg" viewBox="0 0 585 108">
  <defs>
    <style>
      .cls-1 {
        stroke-width: 0px;
      }
    </style>
  </defs>
  <path class="cls-1" d="m151.06,28.76c-1.2,0-2.18.98-2.18,2.18v41.44c0,1.2.98,2.18,2.18,2.18h41.44c1.2,0,2.18-.98,2.18-2.18V30.94c0-1.2-.98-2.18-2.18-2.18h-41.44Zm13.72,10.9c2.17,0,4.01.52,5.25,1.71,1.11,1.11,1.7,2.82,1.7,4.89s-.52,3.62-1.43,4.81c-1.25,1.74-3.46,2.62-5.55,2.62-.45,0-.8,0-1.19-.03v10h-2.68v-23.53c1.08-.28,2.33-.46,3.9-.46Zm.44,1.79c-.63,0-1.16.07-1.51.17v9.39c.32.03.63.07,1.08.07,2.62,0,4.39-1.75,4.39-5.06,0-2.41-.97-4.57-3.97-4.57Zm13.88,4.75c1.38,0,2.39.43,3.12.87l-.73,2.04c-.69-.46-1.41-.77-2.34-.77-1.48,0-2.25,1.05-2.25,2.17s.44,1.79,2.17,2.91c2.03,1.26,3.62,2.84,3.62,5.18,0,3.4-2.39,5.05-5.29,5.05-1.26,0-2.67-.38-3.44-.98l.69-2.03c.62.38,1.7.87,2.82.87,1.56,0,2.57-.95,2.57-2.45,0-1.3-.47-2.2-2.25-3.32-2.28-1.44-3.51-2.91-3.51-4.83,0-2.77,2.09-4.7,4.81-4.7Z"/>
  <path class="cls-1" d="m224.13,28.76c-1.2,0-2.18.98-2.18,2.18v41.44c0,1.2.98,2.18,2.18,2.18h41.44c1.2,0,2.18-.98,2.18-2.18V30.94c0-1.2-.98-2.18-2.18-2.18h-41.44Zm15.19,10.9h2.97l5.23,23.99h-2.66l-1.52-7.01h-5.23l-1.55,7.01h-2.62l5.38-23.99Zm13.96,0c1.01,0,1.66.69,1.66,1.7s-.64,1.71-1.66,1.71h-.03c-.89,0-1.58-.69-1.58-1.71s.72-1.7,1.61-1.7Zm-12.54,2.66c-.28,1.78-.63,3.81-.98,5.41l-1.2,6.11h4.46l-1.23-6.14c-.35-1.68-.66-3.63-.95-5.38h-.1Zm11.2,2.79h2.73v18.54h-2.73v-18.54Z"/>
  <path class="cls-1" d="m349.53,29.85h-41.44c-1.2,0-2.18.98-2.18,2.18v41.44c0,1.2.98,2.18,2.18,2.18h41.44c1.2,0,2.18-.98,2.18-2.18v-41.44c0-1.2-.98-2.18-2.18-2.18Zm-26.72,34.9h-2.73v-23.99h2.73v23.99Zm15.81-3.69c0,1.16-.03,2.7,0,3.69h-2.73v-1.77c-.52,1.18-1.52,2.1-3.29,2.1-2.86,0-4.89-3.61-4.89-9.19,0-6.01,2.51-8.59,5.13-8.59,1.22,0,2.38.61,3.05,2.04v-8.58h2.73v20.31Zm-5.18-11.46c-2.24,0-3.04,2.9-3.04,6.29s.87,6.96,2.84,6.96c.83,0,1.92-.44,2.51-2.88.11-.31.14-.95.14-.95v-4.97c0-.35.03-.77,0-1.17-.14-1.74-1.16-3.28-2.44-3.28Z"/>
  <path class="cls-1" d="m408.69,51.78c-2.23,0-3.03,2.9-3.03,6.28,0,3.56.87,6.97,2.83,6.97.84,0,1.92-.44,2.51-2.88.1-.31.14-.95.14-.95v-4.98c0-.35.03-.78,0-1.16-.14-1.74-1.15-3.29-2.44-3.29Zm12.82-19.75h-41.44c-1.2,0-2.18.98-2.18,2.18v41.44c0,1.2.98,2.18,2.18,2.18h41.44c1.2,0,2.18-.98,2.18-2.18v-41.44c0-1.2-.98-2.18-2.18-2.18Zm-19.08,34.9h-2.73l-4.63-8.86-4.64,8.86h-2.69l5.98-11.45-5.98-11.45h2.69l4.64,8.86,4.63-8.86h2.73l-6,11.45,6,11.45Zm11.45-3.68c0,1.15-.03,2.7,0,3.68h-2.73v-1.77c-.52,1.19-1.51,2.11-3.29,2.11-2.86,0-4.89-3.62-4.89-9.2,0-6,2.51-8.59,5.13-8.59,1.22,0,2.39.62,3.05,2.04h0v-8.59h2.73v20.31Z"/>
</svg>