<?xml version="1.0" encoding="UTF-8"?>
<svg id="Livello_1" data-name="Livello 1" xmlns="http://www.w3.org/2000/svg" viewBox="0 0 283 265.48">
  <defs>
    <style>
      .cls-1 {
        fill: #222221;
        stroke-width: 0px;
      }
    </style>
  </defs>
  <rect class="cls-1" x="88.83" y="165.69" width="75.36" height="9.53"/>
  <path class="cls-1" d="m60.83,99.86c3.25-8.17,7.79-15.2,13.61-21.1,5.82-5.9,12.67-10.51,20.54-13.84,7.86-3.33,16.41-4.99,25.64-4.99,8.17,0,16.15,1.59,23.94,4.77,7.79,3.18,14.41,7.72,19.85,13.61l14.29-14.98c-7.71-7.72-16.45-13.16-26.21-16.34-9.76-3.18-19.93-4.76-30.52-4.76-12.1,0-23.37,2.04-33.81,6.13-10.44,4.08-19.59,9.8-27.46,17.13-7.87,7.34-14.03,16.19-18.49,26.55-4.46,10.36-6.69,21.9-6.69,34.6h20.42c0-9.68,1.62-18.61,4.88-26.78Z"/>
  <path class="cls-1" d="m40.84,138.91c.46-.33,1.01-.58,1.63-.77.62-.18,1.3-.28,2.03-.28.65,0,1.28.09,1.9.26.62.18,1.14.43,1.58.76l1.13-.83c-.61-.43-1.31-.73-2.08-.91-.77-.18-1.58-.26-2.42-.26-.96,0-1.85.11-2.68.34-.83.23-1.55.54-2.18.95-.62.41-1.11.9-1.47,1.47-.35.57-.53,1.21-.53,1.92s.17,1.33.5,1.91c.34.57.81,1.07,1.41,1.48.61.41,1.32.73,2.15.96.83.23,1.74.34,2.74.34.83,0,1.65-.07,2.46-.2.81-.13,1.58-.34,2.31-.63v-4.38h-4.45v.98h2.94v2.73c-.47.17-.98.3-1.55.38-.56.09-1.1.13-1.62.13-.78,0-1.49-.09-2.14-.28-.65-.18-1.2-.44-1.67-.77-.46-.33-.82-.72-1.08-1.18-.26-.45-.39-.94-.39-1.47s.13-1.03.39-1.49c.26-.45.62-.84,1.08-1.17Z"/>
  <path class="cls-1" d="m53.66,146.02v-2.87c0-.68.2-1.21.59-1.61.39-.39,1.02-.59,1.88-.59.26,0,.52.03.76.08l.09-.99c-.1-.03-.19-.04-.29-.05-.1,0-.19-.01-.29-.01-.35,0-.67.03-.97.09-.3.06-.57.15-.81.25-.24.1-.45.22-.62.36-.17.13-.31.27-.41.42h-.04c0-.17,0-.33-.02-.49-.01-.16-.02-.32-.02-.48h-1.33c0,.19.01.41.04.64.02.23.04.49.04.76v4.49h1.4Z"/>
  <path class="cls-1" d="m63.42,142.36c-.52,0-1.08.02-1.7.05-.62.03-1.19.12-1.73.25-.53.13-.98.34-1.34.62-.36.28-.54.66-.54,1.15,0,.29.08.54.25.76.17.22.39.4.68.55.28.15.61.26.99.33.38.08.78.11,1.22.11.65,0,1.2-.1,1.67-.29.46-.19.83-.44,1.11-.74h.04c0,.13,0,.27,0,.43,0,.16.03.31.08.45h1.35c-.04-.15-.07-.32-.09-.5-.02-.18-.04-.35-.04-.52v-2.53c0-.84-.28-1.46-.83-1.88-.55-.41-1.45-.62-2.7-.62-.61,0-1.22.07-1.81.22-.59.15-1.11.38-1.54.69l.88.64c.34-.22.72-.38,1.16-.48.44-.1.89-.16,1.34-.16.66,0,1.17.11,1.54.33.37.22.55.54.55.97v.18h-.54Zm.54,1.21c-.01.24-.07.47-.18.69-.11.21-.26.4-.47.56-.2.16-.46.29-.77.38-.31.1-.66.14-1.07.14-.53,0-.97-.08-1.32-.23-.35-.16-.53-.42-.53-.79,0-.4.26-.69.79-.87s1.24-.26,2.14-.26h1.4v.38Z"/>
  <polygon class="cls-1" points="67.14 146.02 74.06 146.02 74.06 145.19 68.98 145.19 73.93 140.89 73.93 140.13 67.36 140.13 67.36 140.96 72.1 140.96 67.14 145.26 67.14 146.02"/>
  <rect class="cls-1" x="76.06" y="140.13" width="1.4" height="5.89"/>
  <path class="cls-1" d="m77.79,137.83c0-.19-.1-.36-.3-.5-.2-.14-.44-.21-.73-.21s-.53.07-.73.21c-.2.14-.3.31-.3.5,0,.21.1.38.29.52.19.13.44.2.74.2s.55-.07.74-.2c.19-.13.29-.31.29-.52Z"/>
  <path class="cls-1" d="m85.08,142.36c-.52,0-1.08.02-1.7.05-.62.03-1.19.12-1.73.25-.53.13-.98.34-1.34.62-.36.28-.54.66-.54,1.15,0,.29.08.54.25.76.17.22.39.4.68.55.28.15.61.26.99.33.38.08.78.11,1.22.11.65,0,1.2-.1,1.67-.29.46-.19.83-.44,1.11-.74h.04c0,.13,0,.27,0,.43,0,.16.03.31.08.45h1.35c-.04-.15-.07-.32-.09-.5-.02-.18-.04-.35-.04-.52v-2.53c0-.84-.28-1.46-.83-1.88-.55-.41-1.45-.62-2.7-.62-.61,0-1.22.07-1.81.22-.59.15-1.11.38-1.54.69l.88.64c.34-.22.72-.38,1.16-.48.44-.1.89-.16,1.34-.16.66,0,1.17.11,1.54.33.37.22.55.54.55.97v.18h-.54Zm.54,1.21c-.01.24-.07.47-.18.69-.11.21-.26.4-.47.56-.2.16-.46.29-.77.38-.31.1-.66.14-1.07.14-.53,0-.97-.08-1.32-.23-.35-.16-.53-.42-.53-.79,0-.4.26-.69.79-.87s1.24-.26,2.14-.26h1.4v.38Z"/>
  <path class="cls-1" d="m102.37,140.59c.4-.34.6-.77.6-1.29,0-.41-.12-.76-.37-1.03-.25-.28-.57-.5-.96-.67-.4-.17-.85-.3-1.35-.37-.5-.08-1.02-.11-1.55-.11h-3.89v8.91h3.8c.59,0,1.18-.04,1.77-.11.59-.08,1.13-.21,1.6-.4.47-.19.86-.44,1.15-.76.29-.32.44-.73.44-1.22,0-.29-.07-.57-.22-.82-.14-.26-.35-.48-.6-.67-.26-.19-.56-.35-.92-.47-.35-.12-.74-.2-1.14-.22v-.03c.68-.14,1.23-.38,1.63-.72Zm-1.31,1.62c.28.13.51.29.68.5.17.21.26.47.26.78,0,.29-.09.53-.27.72-.18.2-.42.36-.71.48-.29.12-.62.21-.99.26-.37.05-.74.08-1.11.08h-2.56v-3.17h2.59c.38,0,.76.03,1.13.08.37.05.69.14.97.26Zm-.62-1.58c-.28.11-.59.17-.93.21-.34.03-.69.05-1.05.05h-2.09v-2.79h2.25c.34,0,.67.02,1,.06.33.04.62.11.88.21.26.1.47.24.62.41.16.17.23.4.23.67,0,.31-.08.56-.25.75-.17.19-.39.34-.67.44Z"/>
  <path class="cls-1" d="m110.77,142.36c-.52,0-1.08.02-1.7.05-.62.03-1.19.12-1.73.25-.53.13-.98.34-1.34.62-.36.28-.54.66-.54,1.15,0,.29.08.54.25.76.17.22.39.4.68.55.28.15.61.26.99.33.38.08.78.11,1.22.11.65,0,1.2-.1,1.67-.29.46-.19.83-.44,1.11-.74h.04c0,.13,0,.27,0,.43,0,.16.03.31.08.45h1.35c-.04-.15-.07-.32-.09-.5-.02-.18-.04-.35-.04-.52v-2.53c0-.84-.28-1.46-.83-1.88-.55-.41-1.45-.62-2.7-.62-.61,0-1.22.07-1.81.22-.59.15-1.11.38-1.54.69l.88.64c.34-.22.72-.38,1.16-.48.44-.1.89-.16,1.34-.16.66,0,1.17.11,1.54.33.37.22.55.54.55.97v.18h-.54Zm.54,1.21c-.01.24-.07.47-.18.69-.11.21-.26.4-.47.56-.2.16-.46.29-.77.38-.31.1-.66.14-1.07.14-.53,0-.97-.08-1.32-.23-.35-.16-.53-.42-.53-.79,0-.4.26-.69.79-.87.53-.18,1.24-.26,2.14-.26h1.4v.38Z"/>
  <path class="cls-1" d="m117.15,137.83c0-.19-.1-.36-.3-.5-.2-.14-.44-.21-.73-.21s-.53.07-.73.21c-.2.14-.3.31-.3.5,0,.21.1.38.29.52.19.13.44.2.74.2s.55-.07.74-.2c.19-.13.29-.31.29-.52Z"/>
  <rect class="cls-1" x="115.42" y="140.13" width="1.4" height="5.89"/>
  <path class="cls-1" d="m126.42,145.53c-.02-.18-.04-.35-.04-.52v-2.53c0-.84-.28-1.46-.83-1.88-.55-.41-1.45-.62-2.7-.62-.61,0-1.22.07-1.81.22-.59.15-1.11.38-1.54.69l.88.64c.34-.22.72-.38,1.16-.48.44-.1.89-.16,1.34-.16.66,0,1.17.11,1.54.33.37.22.55.54.55.97v.18h-.54c-.52,0-1.08.02-1.7.05-.62.03-1.19.12-1.73.25-.53.13-.98.34-1.34.62-.36.28-.54.66-.54,1.15,0,.29.08.54.25.76.17.22.39.4.68.55.28.15.61.26.99.33.38.08.78.11,1.22.11.65,0,1.2-.1,1.67-.29.46-.19.83-.44,1.11-.74h.04c0,.13,0,.27,0,.43,0,.16.03.31.08.45h1.35c-.04-.15-.07-.32-.09-.5Zm-1.44-1.96c-.01.24-.07.47-.18.69-.11.21-.26.4-.47.56-.2.16-.46.29-.77.38-.31.1-.66.14-1.07.14-.53,0-.97-.08-1.32-.23-.35-.16-.53-.42-.53-.79,0-.4.26-.69.79-.87s1.24-.26,2.14-.26h1.4v.38Z"/>
  <path class="cls-1" d="m141.64,146.02v-3.58c0-.38-.05-.72-.16-1.03-.11-.31-.29-.57-.54-.78-.25-.21-.58-.38-.99-.49-.41-.11-.91-.17-1.51-.17-.65,0-1.18.1-1.58.3-.41.2-.77.47-1.08.82-.07-.1-.16-.22-.28-.35-.11-.13-.27-.25-.48-.37-.2-.11-.46-.21-.77-.29-.31-.08-.69-.12-1.14-.12-.35,0-.67.03-.97.09-.3.06-.57.15-.81.25-.24.1-.45.22-.62.36-.17.13-.31.27-.41.42h-.04c0-.17,0-.33-.02-.49-.01-.16-.02-.32-.02-.48h-1.33c0,.19.01.41.04.64.02.23.04.49.04.76v4.49h1.4v-2.87c0-.34.05-.64.15-.92.1-.28.26-.52.47-.72.21-.2.48-.36.81-.47.33-.11.72-.16,1.18-.16.58,0,.99.14,1.24.41.25.27.38.74.38,1.39v3.34h1.4v-3.4c0-.26.06-.5.17-.71.11-.21.27-.4.47-.55.2-.15.43-.27.69-.35.26-.08.55-.13.85-.13.41,0,.74.05,1.01.14.26.09.47.21.63.37.16.15.26.32.32.52.06.19.09.39.09.59v3.52h1.4Z"/>
  <path class="cls-1" d="m151.54,140.84c-.4-.27-.87-.48-1.42-.64-.55-.15-1.15-.23-1.8-.23s-1.25.08-1.8.23c-.55.15-1.03.36-1.42.64-.4.27-.71.6-.94.98-.23.38-.34.8-.34,1.26s.11.88.34,1.26c.23.38.54.7.94.98.4.27.87.48,1.42.64.55.15,1.15.23,1.8.23s1.25-.08,1.8-.23c.55-.15,1.03-.36,1.42-.64.4-.27.71-.6.94-.98.23-.38.34-.8.34-1.26s-.11-.88-.34-1.26c-.23-.38-.54-.7-.94-.98Zm-.44,3.1c-.14.26-.34.5-.6.69-.26.2-.58.35-.95.47-.37.11-.78.17-1.23.17s-.87-.06-1.23-.17-.68-.27-.95-.47c-.26-.2-.47-.43-.6-.69-.14-.26-.21-.55-.21-.86s.07-.6.21-.86c.14-.26.34-.49.6-.69.26-.2.58-.35.95-.47s.78-.17,1.23-.17.87.06,1.23.17c.37.11.68.27.95.47.26.2.47.43.6.69.14.26.21.55.21.86s-.07.6-.21.86Z"/>
  <path class="cls-1" d="m162.35,146.02v-3.64c0-.35-.06-.68-.19-.98-.13-.3-.32-.55-.59-.76-.26-.21-.6-.37-1-.49-.4-.12-.88-.18-1.43-.18-.35,0-.67.03-.97.09-.3.06-.57.15-.81.25-.24.1-.45.22-.62.36-.17.13-.31.27-.41.42h-.04c0-.17,0-.33-.02-.49-.01-.16-.02-.32-.02-.48h-1.33c0,.19.01.41.04.64.02.23.04.49.04.76v4.49h1.4v-2.87c0-.34.05-.64.15-.92.1-.28.26-.52.47-.72.21-.2.48-.36.81-.47.33-.11.72-.16,1.18-.16.66,0,1.15.14,1.46.43.31.29.47.68.47,1.17v3.54h1.41Z"/>
  <path class="cls-1" d="m165.73,138.46v1.67h-1.84v.83h1.84v3.24c0,.3.03.58.08.82.05.25.16.46.33.62.17.17.4.3.7.39.3.09.7.14,1.21.14.26,0,.54-.02.84-.05.29-.03.56-.09.8-.16l-.05-.89c-.19.07-.4.12-.61.15-.22.03-.43.05-.63.05-.31,0-.55-.04-.72-.11-.17-.07-.29-.17-.38-.29-.08-.12-.13-.26-.14-.43-.01-.16-.02-.34-.02-.53v-2.95h2.49v-.83h-2.49v-1.67h-1.4Z"/>
  <path class="cls-1" d="m179.18,143.07c0-.49-.1-.92-.29-1.3-.19-.38-.47-.7-.82-.97-.35-.26-.78-.47-1.27-.6-.49-.14-1.03-.21-1.62-.21-.62,0-1.2.08-1.73.23-.53.15-.98.36-1.37.64-.38.27-.68.6-.9.98-.22.38-.32.8-.32,1.25,0,.43.1.83.3,1.21.2.38.48.7.85.98.37.28.81.5,1.34.66.53.16,1.12.25,1.78.25.79,0,1.49-.09,2.09-.27.6-.18,1.15-.5,1.66-.95l-1.06-.58c-.34.29-.71.52-1.13.67-.42.15-.94.23-1.55.23-.38,0-.74-.05-1.06-.15-.32-.1-.61-.24-.85-.41-.24-.17-.44-.37-.59-.6-.15-.23-.24-.47-.26-.72h6.81v-.31Zm-6.81-.52c.1-.5.38-.91.86-1.21.48-.3,1.11-.45,1.89-.45s1.39.15,1.84.45c.44.3.68.7.7,1.21h-5.29Z"/>
  <path class="cls-1" d="m203.67,83.46c-4.47,0-8.84.54-13.11,1.63-4.27,1.09-8.08,2.87-11.43,5.35-3.35,2.48-6.07,5.71-8.15,9.7-2.08,3.99-3.12,8.95-3.12,14.87,0,7.5,1.7,13.69,5.11,18.58,3.41,4.9,8,8.37,13.79,10.43v.36c-3.45.36-6.68,1.42-9.68,3.17-2.35,1.38-4.45,3.08-6.3,5.09h-45.39v8.17h36.99v49.24c-5.9,3.03-12.41,5.33-19.51,6.92-7.11,1.59-13.92,2.38-20.42,2.38-9.83,0-18.83-1.66-27-4.99-8.17-3.33-15.17-7.98-20.99-13.96-5.83-5.97-10.36-13.05-13.61-21.22-3.25-8.17-4.88-17.02-4.88-26.55h-20.42c0,12.56,2.12,24.02,6.35,34.38,4.23,10.36,10.17,19.25,17.81,26.66,7.64,7.41,16.68,13.16,27.12,17.25,10.44,4.08,21.93,6.13,34.49,6.13,10.44,0,20.76-1.21,30.97-3.63s19.93-6.2,29.16-11.35v-14.5c2.51,1.13,5.16,2.01,7.99,2.62,5.03,1.09,10.04,1.63,15.01,1.63h32.16V83.46h-32.92Zm20.12,114.22h-21.64c-3.15,0-6.27-.39-9.37-1.18-3.1-.78-5.89-2.05-8.38-3.81-1.08-.76-2.06-1.65-2.96-2.62v-30.7c.81-.93,1.7-1.76,2.66-2.49,2.39-1.81,5.13-3.08,8.23-3.81,3.1-.73,6.27-1.09,9.52-1.09h21.95v45.69Zm0-59.83h-17.68c-3.05,0-6.02-.24-8.92-.72-2.9-.48-5.51-1.48-7.85-2.99-2.34-1.51-4.21-3.63-5.64-6.35-1.42-2.72-2.13-6.31-2.13-10.79,0-3.99.66-7.22,1.98-9.7,1.32-2.48,3.07-4.44,5.26-5.89,2.19-1.45,4.67-2.45,7.47-2.99,2.8-.54,5.62-.82,8.46-.82h19.05v40.25Z"/>
</svg>